# xmcd CD database file
#
# Track frame offsets:
#	155
#	29935
#	49840
#	77802
#	105165
#	125620
#	150667
#
# Disc length: 2309 seconds
#
# Revision: 6
# Processed by: cddbd v1.4PL0 Copyright (c) Steve Scherf et al.
# Submitted via: CDex 1.50Beta7
#
DISCID=55090307
DTITLE=Petar Ugrin - Ljubljana Jazz Selection
DYEAR=1993
DGENRE=Jazz
TTITLE0=Old Country
TTITLE1=Solar
TTITLE2=Summer '42
TTITLE3=Triste
TTITLE4=Night In Tunisia
TTITLE5=The Child Is Born
TTITLE6=South West
EXTD=YEAR: 1993
EXTT0=
EXTT1=
EXTT2=
EXTT3=
EXTT4=
EXTT5=
EXTT6=
PLAYORDER=
